<svg xmlns="http://www.w3.org/2000/svg" width="37.5" viewBox="0 0 37.5 37.5" height="37.5" version="1.0"><defs><clipPath id="a"><path d="M 0.980469 8 L 14 8 L 14 30 L 0.980469 30 Z M 0.980469 8"/></clipPath><clipPath id="b"><path d="M 35.792969 15.507812 L 19 15.507812 L 19 22.554688 L 28.667969 22.554688 C 27.765625 27.03125 23.996094 29.601562 19 29.601562 C 13.105469 29.601562 8.355469 24.792969 8.355469 18.824219 C 8.355469 12.855469 13.105469 8.046875 19 8.046875 C 21.539062 8.046875 23.832031 8.960938 25.636719 10.453125 L 30.878906 5.144531 C 27.683594 2.328125 23.589844 0.585938 19 0.585938 C 9.007812 0.585938 0.980469 8.710938 0.980469 18.824219 C 0.980469 28.9375 9.007812 37.0625 19 37.0625 C 28.011719 37.0625 36.203125 30.429688 36.203125 18.824219 C 36.203125 17.746094 36.039062 16.585938 35.792969 15.507812 Z M 35.792969 15.507812"/></clipPath><clipPath id="c"><path d="M 0.980469 0.449219 L 36.203125 0.449219 L 36.203125 19 L 0.980469 19 Z M 0.980469 0.449219"/></clipPath><clipPath id="d"><path d="M 35.792969 15.507812 L 19 15.507812 L 19 22.554688 L 28.667969 22.554688 C 27.765625 27.03125 23.996094 29.601562 19 29.601562 C 13.105469 29.601562 8.355469 24.792969 8.355469 18.824219 C 8.355469 12.855469 13.105469 8.046875 19 8.046875 C 21.539062 8.046875 23.832031 8.960938 25.636719 10.453125 L 30.878906 5.144531 C 27.683594 2.328125 23.589844 0.585938 19 0.585938 C 9.007812 0.585938 0.980469 8.710938 0.980469 18.824219 C 0.980469 28.9375 9.007812 37.0625 19 37.0625 C 28.011719 37.0625 36.203125 30.429688 36.203125 18.824219 C 36.203125 17.746094 36.039062 16.585938 35.792969 15.507812 Z M 35.792969 15.507812"/></clipPath><clipPath id="e"><path d="M 0.980469 0.449219 L 36.203125 0.449219 L 36.203125 37.007812 L 0.980469 37.007812 Z M 0.980469 0.449219"/></clipPath><clipPath id="f"><path d="M 35.792969 15.507812 L 19 15.507812 L 19 22.554688 L 28.667969 22.554688 C 27.765625 27.03125 23.996094 29.601562 19 29.601562 C 13.105469 29.601562 8.355469 24.792969 8.355469 18.824219 C 8.355469 12.855469 13.105469 8.046875 19 8.046875 C 21.539062 8.046875 23.832031 8.960938 25.636719 10.453125 L 30.878906 5.144531 C 27.683594 2.328125 23.589844 0.585938 19 0.585938 C 9.007812 0.585938 0.980469 8.710938 0.980469 18.824219 C 0.980469 28.9375 9.007812 37.0625 19 37.0625 C 28.011719 37.0625 36.203125 30.429688 36.203125 18.824219 C 36.203125 17.746094 36.039062 16.585938 35.792969 15.507812 Z M 35.792969 15.507812"/></clipPath><clipPath id="g"><path d="M 9 8 L 36.203125 8 L 36.203125 37.007812 L 9 37.007812 Z M 9 8"/></clipPath><clipPath id="h"><path d="M 35.792969 15.507812 L 19 15.507812 L 19 22.554688 L 28.667969 22.554688 C 27.765625 27.03125 23.996094 29.601562 19 29.601562 C 13.105469 29.601562 8.355469 24.792969 8.355469 18.824219 C 8.355469 12.855469 13.105469 8.046875 19 8.046875 C 21.539062 8.046875 23.832031 8.960938 25.636719 10.453125 L 30.878906 5.144531 C 27.683594 2.328125 23.589844 0.585938 19 0.585938 C 9.007812 0.585938 0.980469 8.710938 0.980469 18.824219 C 0.980469 28.9375 9.007812 37.0625 19 37.0625 C 28.011719 37.0625 36.203125 30.429688 36.203125 18.824219 C 36.203125 17.746094 36.039062 16.585938 35.792969 15.507812 Z M 35.792969 15.507812"/></clipPath></defs><g clip-path="url(#a)"><g clip-path="url(#b)"><path fill="#FBBC05" d="M -0.65625 29.601562 L -0.65625 8.046875 L 13.269531 18.824219 Z M -0.65625 29.601562"/></g></g><g clip-path="url(#c)"><g clip-path="url(#d)"><path fill="#EA4335" d="M -0.65625 8.046875 L 13.269531 18.824219 L 19 13.769531 L 38.660156 10.535156 L 38.660156 -1.070312 L -0.65625 -1.070312 Z M -0.65625 8.046875"/></g></g><g clip-path="url(#e)"><g clip-path="url(#f)"><path fill="#34A853" d="M -0.65625 29.601562 L 23.914062 10.535156 L 30.386719 11.363281 L 38.660156 -1.070312 L 38.660156 38.722656 L -0.65625 38.722656 Z M -0.65625 29.601562"/></g></g><g clip-path="url(#g)"><g clip-path="url(#h)"><path fill="#4285F4" d="M 38.660156 38.722656 L 13.269531 18.824219 L 9.992188 16.335938 L 38.660156 8.046875 Z M 38.660156 38.722656"/></g></g></svg>