<svg xmlns="http://www.w3.org/2000/svg" width="84.75" viewBox="0 0 84.75 81.75" height="81.75" version="1.0"><defs><clipPath id="a"><path d="M 1 5 L 83 5 L 83 74.601562 L 1 74.601562 Z M 1 5"/></clipPath></defs><g clip-path="url(#a)"><path fill="#003C2D" d="M 32.875 51.25 C 34.4375 51.289062 35.984375 51.554688 37.464844 52.050781 C 38.007812 52.222656 38.300781 52.8125 38.113281 53.351562 C 38.113281 53.359375 38.105469 53.363281 38.105469 53.371094 C 37.351562 55.492188 35.644531 57.140625 33.492188 57.816406 C 32.867188 58.007812 32.195312 58.007812 31.578125 57.816406 C 29.425781 57.140625 27.71875 55.492188 26.957031 53.371094 C 26.769531 52.832031 27.042969 52.242188 27.582031 52.054688 C 27.589844 52.050781 27.597656 52.050781 27.605469 52.050781 C 29.300781 51.480469 31.082031 51.207031 32.867188 51.25 Z M 53.101562 41.742188 C 55.082031 41.640625 56.753906 43.15625 56.855469 45.132812 C 56.863281 45.167969 56.863281 45.199219 56.863281 45.234375 L 56.863281 49 L 54.609375 50.035156 L 56.046875 50.984375 L 55.550781 52.660156 L 56.855469 53.882812 L 56.855469 54.59375 C 56.804688 56.5625 55.164062 58.125 53.183594 58.074219 C 51.273438 58.023438 49.75 56.492188 49.691406 54.59375 L 49.691406 45.234375 C 49.734375 43.359375 51.222656 41.832031 53.097656 41.742188 Z M 44.21875 41.742188 C 46.199219 41.640625 47.875 43.15625 47.976562 45.125 C 47.976562 45.164062 47.976562 45.199219 47.976562 45.234375 L 47.976562 54.59375 C 47.933594 56.5625 46.285156 58.125 44.304688 58.074219 C 42.398438 58.023438 40.871094 56.492188 40.820312 54.59375 L 40.820312 53.585938 L 43.148438 52.121094 L 41.734375 50.941406 L 42.550781 49.683594 L 40.820312 49.066406 L 40.820312 45.234375 C 40.859375 43.359375 42.347656 41.832031 44.226562 41.742188 Z M 57.003906 28.152344 C 58.207031 28.714844 59.128906 29.75 59.554688 31.015625 C 59.871094 32.035156 60.136719 33.078125 60.351562 34.128906 L 58.796875 35.910156 L 60.792969 36.917969 C 60.945312 38.226562 61.015625 39.539062 61.007812 40.863281 C 60.8125 42.550781 59.273438 43.769531 57.582031 43.582031 C 56.675781 41.199219 54.003906 40.015625 51.628906 40.929688 C 50.261719 41.445312 49.222656 42.582031 48.835938 43.984375 C 48.640625 43.320312 48.300781 42.703125 47.847656 42.1875 C 48.007812 41.90625 48.179688 41.632812 48.351562 41.359375 C 48.941406 40.433594 49.878906 39.777344 50.949219 39.539062 C 52.886719 39.117188 54.894531 39.085938 56.847656 39.453125 C 56.78125 37.742188 56.558594 36.046875 56.175781 34.378906 L 55.148438 34.5 C 55.4375 35.730469 55.628906 36.980469 55.738281 38.238281 C 53.398438 38 51.042969 38.289062 48.835938 39.074219 C 46.617188 38.289062 44.253906 38 41.921875 38.238281 C 42.03125 36.980469 42.234375 35.730469 42.511719 34.5 L 41.484375 34.378906 C 41.109375 36.046875 40.886719 37.742188 40.8125 39.453125 C 43.234375 38.992188 45.738281 39.160156 48.085938 39.914062 C 47.726562 40.425781 47.378906 40.949219 47.070312 41.488281 C 44.996094 40.007812 42.109375 40.496094 40.632812 42.566406 C 40.410156 42.882812 40.222656 43.226562 40.085938 43.585938 C 38.394531 43.773438 36.863281 42.550781 36.660156 40.863281 C 36.660156 39.992188 36.6875 39.117188 36.746094 38.246094 L 38.804688 37.253906 L 38.230469 36.023438 L 38.742188 35.183594 L 37.421875 33.632812 C 37.617188 32.746094 37.847656 31.875 38.113281 31.015625 C 38.539062 29.75 39.460938 28.714844 40.664062 28.152344 C 40.808594 32.660156 44.578125 36.199219 49.09375 36.054688 C 53.40625 35.917969 56.867188 32.460938 57.003906 28.152344 Z M 48.675781 20.761719 C 52.628906 20.675781 55.898438 23.804688 55.984375 27.734375 C 55.984375 27.808594 55.984375 27.871094 55.984375 27.945312 C 55.984375 31.882812 52.78125 35.074219 48.835938 35.074219 C 44.890625 35.074219 41.691406 31.882812 41.691406 27.945312 C 41.671875 24.046875 44.773438 20.847656 48.675781 20.761719 Z M 60.304688 5.566406 C 53.242188 5.550781 46.574219 8.859375 42.3125 14.480469 C 42.28125 14.523438 42.21875 14.53125 42.175781 14.492188 C 42.175781 14.492188 42.167969 14.488281 42.167969 14.480469 C 34.644531 4.585938 20.519531 2.660156 10.613281 10.164062 C 1.535156 17.046875 -0.964844 29.605469 4.789062 39.425781 C 13.628906 54.480469 26.609375 66.679688 42.195312 74.574219 C 42.226562 74.59375 42.253906 74.59375 42.28125 74.574219 C 57.871094 66.679688 70.851562 54.480469 79.699219 39.425781 C 85.984375 28.714844 82.398438 14.9375 71.671875 8.65625 C 68.222656 6.636719 64.296875 5.566406 60.304688 5.566406"/></g><path fill="#003C2D" d="M 27.832031 53.320312 C 30.886719 54.328125 34.183594 54.328125 37.230469 53.320312 C 37.394531 53.265625 37.480469 53.09375 37.429688 52.925781 C 37.394531 52.832031 37.324219 52.761719 37.230469 52.730469 C 34.183594 51.71875 30.886719 51.71875 27.832031 52.730469 C 27.667969 52.789062 27.582031 52.960938 27.640625 53.128906 C 27.667969 53.214844 27.742188 53.285156 27.832031 53.320312"/></svg>